<mxfile host="app.diagrams.net" modified="2023-12-09T05:48:12.694Z" agent="Mozilla/5.0 (Windows NT 10.0; Win64; x64) AppleWebKit/537.36 (KHTML, like Gecko) Chrome/119.0.0.0 Safari/537.36 Edg/119.0.0.0" etag="EYcAiS5iXfhqyR3d7K4C" version="22.1.7" type="github">
  <diagram name="Page-1" id="52a04d89-c75d-2922-d76d-85b35f80e030">
    <mxGraphModel dx="1280" dy="863" grid="1" gridSize="10" guides="1" tooltips="1" connect="1" arrows="1" fold="1" page="1" pageScale="1" pageWidth="1100" pageHeight="850" background="none" math="0" shadow="0">
      <root>
        <mxCell id="0" />
        <mxCell id="1" parent="0" />
        <mxCell id="b1AmFHMhaAKlPpzCnuPG-34" value="" style="group" vertex="1" connectable="0" parent="1">
          <mxGeometry x="130" y="70" width="730" height="660" as="geometry" />
        </mxCell>
        <mxCell id="21ea969265ad0168-30" value="通过的流浪猫信息表" style="html=1;rounded=0;shadow=0;comic=0;labelBackgroundColor=none;strokeWidth=2;fontFamily=Verdana;fontSize=12;align=center;shape=mxgraph.ios7ui.horLines;" parent="b1AmFHMhaAKlPpzCnuPG-34" vertex="1">
          <mxGeometry x="292.5" y="610" width="135" height="50" as="geometry" />
        </mxCell>
        <mxCell id="17472293e6e8944d-4" value="已领养流浪猫信息表" style="html=1;rounded=0;shadow=0;comic=0;labelBackgroundColor=none;strokeWidth=2;fontFamily=Verdana;fontSize=12;align=center;shape=mxgraph.ios7ui.horLines;" parent="b1AmFHMhaAKlPpzCnuPG-34" vertex="1">
          <mxGeometry x="592.5" width="135" height="50" as="geometry" />
        </mxCell>
        <mxCell id="b1AmFHMhaAKlPpzCnuPG-25" style="edgeStyle=orthogonalEdgeStyle;rounded=0;orthogonalLoop=1;jettySize=auto;html=1;exitX=0.5;exitY=0;exitDx=0;exitDy=0;" edge="1" parent="b1AmFHMhaAKlPpzCnuPG-34" source="17472293e6e8944d-29">
          <mxGeometry relative="1" as="geometry">
            <mxPoint x="660" y="200" as="targetPoint" />
          </mxGeometry>
        </mxCell>
        <mxCell id="b1AmFHMhaAKlPpzCnuPG-26" value="登记意见" style="edgeLabel;html=1;align=center;verticalAlign=middle;resizable=0;points=[];" vertex="1" connectable="0" parent="b1AmFHMhaAKlPpzCnuPG-25">
          <mxGeometry x="0.1524" relative="1" as="geometry">
            <mxPoint y="-1" as="offset" />
          </mxGeometry>
        </mxCell>
        <mxCell id="17472293e6e8944d-29" value="管理员" style="whiteSpace=wrap;html=1;rounded=0;shadow=0;comic=0;labelBackgroundColor=none;strokeWidth=1;fontFamily=Verdana;fontSize=12;align=center;" parent="b1AmFHMhaAKlPpzCnuPG-34" vertex="1">
          <mxGeometry x="600" y="307" width="120" height="50" as="geometry" />
        </mxCell>
        <mxCell id="1fdf3b25b50cf41e-6" value="待领养流浪猫信息表" style="html=1;rounded=0;shadow=0;comic=0;labelBackgroundColor=none;strokeWidth=2;fontFamily=Verdana;fontSize=12;align=center;shape=mxgraph.ios7ui.horLines;" parent="b1AmFHMhaAKlPpzCnuPG-34" vertex="1">
          <mxGeometry x="592.5" y="610" width="135" height="50" as="geometry" />
        </mxCell>
        <mxCell id="b1AmFHMhaAKlPpzCnuPG-29" style="edgeStyle=orthogonalEdgeStyle;rounded=0;orthogonalLoop=1;jettySize=auto;html=1;exitX=0.5;exitY=0;exitDx=0;exitDy=0;" edge="1" parent="b1AmFHMhaAKlPpzCnuPG-34" source="1fdf3b25b50cf41e-7" target="17472293e6e8944d-4">
          <mxGeometry relative="1" as="geometry" />
        </mxCell>
        <mxCell id="1fdf3b25b50cf41e-7" value="3.6" style="swimlane;html=1;fontStyle=0;childLayout=stackLayout;horizontal=1;startSize=26;fillColor=#e0e0e0;horizontalStack=0;resizeParent=1;resizeLast=0;collapsible=1;marginBottom=0;swimlaneFillColor=#ffffff;align=center;rounded=1;shadow=0;comic=0;labelBackgroundColor=none;strokeWidth=1;fontFamily=Verdana;fontSize=12" parent="b1AmFHMhaAKlPpzCnuPG-34" vertex="1">
          <mxGeometry x="590" y="140" width="140" height="52" as="geometry" />
        </mxCell>
        <mxCell id="1fdf3b25b50cf41e-8" value="领养登记服务" style="text;html=1;strokeColor=none;fillColor=none;spacingLeft=4;spacingRight=4;whiteSpace=wrap;overflow=hidden;rotatable=0;points=[[0,0.5],[1,0.5]];portConstraint=eastwest;align=center;" parent="1fdf3b25b50cf41e-7" vertex="1">
          <mxGeometry y="26" width="140" height="26" as="geometry" />
        </mxCell>
        <mxCell id="1fdf3b25b50cf41e-40" style="edgeStyle=none;html=1;labelBackgroundColor=none;startFill=0;startSize=8;endFill=1;endSize=8;fontFamily=Verdana;fontSize=12;" parent="b1AmFHMhaAKlPpzCnuPG-34" source="1fdf3b25b50cf41e-9" target="1fdf3b25b50cf41e-7" edge="1">
          <mxGeometry relative="1" as="geometry" />
        </mxCell>
        <mxCell id="b1AmFHMhaAKlPpzCnuPG-21" value="已通过领养申请" style="edgeLabel;html=1;align=center;verticalAlign=middle;resizable=0;points=[];" vertex="1" connectable="0" parent="1fdf3b25b50cf41e-40">
          <mxGeometry x="0.0361" y="-2" relative="1" as="geometry">
            <mxPoint as="offset" />
          </mxGeometry>
        </mxCell>
        <mxCell id="1fdf3b25b50cf41e-9" value="3.5" style="swimlane;html=1;fontStyle=0;childLayout=stackLayout;horizontal=1;startSize=26;fillColor=#e0e0e0;horizontalStack=0;resizeParent=1;resizeLast=0;collapsible=1;marginBottom=0;swimlaneFillColor=#ffffff;align=center;rounded=1;shadow=0;comic=0;labelBackgroundColor=none;strokeWidth=1;fontFamily=Verdana;fontSize=12" parent="b1AmFHMhaAKlPpzCnuPG-34" vertex="1">
          <mxGeometry x="290" y="140" width="140" height="52" as="geometry" />
        </mxCell>
        <mxCell id="1fdf3b25b50cf41e-10" value="领养服务" style="text;html=1;strokeColor=none;fillColor=none;spacingLeft=4;spacingRight=4;whiteSpace=wrap;overflow=hidden;rotatable=0;points=[[0,0.5],[1,0.5]];portConstraint=eastwest;align=center;" parent="1fdf3b25b50cf41e-9" vertex="1">
          <mxGeometry y="26" width="140" height="26" as="geometry" />
        </mxCell>
        <mxCell id="1fdf3b25b50cf41e-17" value="3.2" style="swimlane;html=1;fontStyle=0;childLayout=stackLayout;horizontal=1;startSize=26;fillColor=#e0e0e0;horizontalStack=0;resizeParent=1;resizeLast=0;collapsible=1;marginBottom=0;swimlaneFillColor=#ffffff;align=center;rounded=1;shadow=0;comic=0;labelBackgroundColor=none;strokeWidth=1;fontFamily=Verdana;fontSize=12" parent="b1AmFHMhaAKlPpzCnuPG-34" vertex="1">
          <mxGeometry x="290" y="470" width="140" height="52" as="geometry" />
        </mxCell>
        <mxCell id="1fdf3b25b50cf41e-18" value="流浪猫登记审核" style="text;html=1;strokeColor=none;fillColor=none;spacingLeft=4;spacingRight=4;whiteSpace=wrap;overflow=hidden;rotatable=0;points=[[0,0.5],[1,0.5]];portConstraint=eastwest;align=center;" parent="1fdf3b25b50cf41e-17" vertex="1">
          <mxGeometry y="26" width="140" height="26" as="geometry" />
        </mxCell>
        <mxCell id="1fdf3b25b50cf41e-19" value="3.3" style="swimlane;html=1;fontStyle=0;childLayout=stackLayout;horizontal=1;startSize=26;fillColor=#e0e0e0;horizontalStack=0;resizeParent=1;resizeLast=0;collapsible=1;marginBottom=0;swimlaneFillColor=#ffffff;align=center;rounded=1;shadow=0;comic=0;labelBackgroundColor=none;strokeWidth=1;fontFamily=Verdana;fontSize=12" parent="b1AmFHMhaAKlPpzCnuPG-34" vertex="1">
          <mxGeometry x="590" y="470" width="140" height="52" as="geometry" />
        </mxCell>
        <mxCell id="1fdf3b25b50cf41e-20" value="流浪猫登记" style="text;html=1;strokeColor=none;fillColor=none;spacingLeft=4;spacingRight=4;whiteSpace=wrap;overflow=hidden;rotatable=0;points=[[0,0.5],[1,0.5]];portConstraint=eastwest;align=center;" parent="1fdf3b25b50cf41e-19" vertex="1">
          <mxGeometry y="26" width="140" height="26" as="geometry" />
        </mxCell>
        <mxCell id="b1AmFHMhaAKlPpzCnuPG-9" style="edgeStyle=orthogonalEdgeStyle;rounded=0;orthogonalLoop=1;jettySize=auto;html=1;exitX=0.75;exitY=1;exitDx=0;exitDy=0;entryX=0;entryY=0.25;entryDx=0;entryDy=0;" edge="1" parent="b1AmFHMhaAKlPpzCnuPG-34" source="1fdf3b25b50cf41e-25" target="1fdf3b25b50cf41e-17">
          <mxGeometry relative="1" as="geometry" />
        </mxCell>
        <mxCell id="b1AmFHMhaAKlPpzCnuPG-10" value="流浪猫信息" style="edgeLabel;html=1;align=center;verticalAlign=middle;resizable=0;points=[];" vertex="1" connectable="0" parent="b1AmFHMhaAKlPpzCnuPG-9">
          <mxGeometry x="-0.6892" relative="1" as="geometry">
            <mxPoint as="offset" />
          </mxGeometry>
        </mxCell>
        <mxCell id="1fdf3b25b50cf41e-25" value="用户" style="whiteSpace=wrap;html=1;rounded=0;shadow=0;comic=0;labelBackgroundColor=none;strokeWidth=1;fontFamily=Verdana;fontSize=12;align=center;" parent="b1AmFHMhaAKlPpzCnuPG-34" vertex="1">
          <mxGeometry y="307" width="120" height="50" as="geometry" />
        </mxCell>
        <mxCell id="b1AmFHMhaAKlPpzCnuPG-13" style="edgeStyle=orthogonalEdgeStyle;rounded=0;orthogonalLoop=1;jettySize=auto;html=1;exitX=0.5;exitY=1;exitDx=0;exitDy=0;entryX=0.5;entryY=0;entryDx=0;entryDy=0;" edge="1" parent="b1AmFHMhaAKlPpzCnuPG-34" source="1fdf3b25b50cf41e-26" target="1fdf3b25b50cf41e-17">
          <mxGeometry relative="1" as="geometry" />
        </mxCell>
        <mxCell id="b1AmFHMhaAKlPpzCnuPG-14" value="审核意见" style="edgeLabel;html=1;align=center;verticalAlign=middle;resizable=0;points=[];" vertex="1" connectable="0" parent="b1AmFHMhaAKlPpzCnuPG-13">
          <mxGeometry x="-0.0088" relative="1" as="geometry">
            <mxPoint as="offset" />
          </mxGeometry>
        </mxCell>
        <mxCell id="1fdf3b25b50cf41e-26" value="审核员" style="whiteSpace=wrap;html=1;rounded=0;shadow=0;comic=0;labelBackgroundColor=none;strokeWidth=1;fontFamily=Verdana;fontSize=12;align=center;" parent="b1AmFHMhaAKlPpzCnuPG-34" vertex="1">
          <mxGeometry x="300" y="307" width="120" height="50" as="geometry" />
        </mxCell>
        <mxCell id="b1AmFHMhaAKlPpzCnuPG-11" style="edgeStyle=orthogonalEdgeStyle;rounded=0;orthogonalLoop=1;jettySize=auto;html=1;exitX=0;exitY=0.5;exitDx=0;exitDy=0;entryX=0.5;entryY=1;entryDx=0;entryDy=0;" edge="1" parent="b1AmFHMhaAKlPpzCnuPG-34" source="1fdf3b25b50cf41e-18" target="1fdf3b25b50cf41e-25">
          <mxGeometry relative="1" as="geometry" />
        </mxCell>
        <mxCell id="b1AmFHMhaAKlPpzCnuPG-12" value="审核结果" style="edgeLabel;html=1;align=center;verticalAlign=middle;resizable=0;points=[];" vertex="1" connectable="0" parent="b1AmFHMhaAKlPpzCnuPG-11">
          <mxGeometry x="-0.2179" y="3" relative="1" as="geometry">
            <mxPoint as="offset" />
          </mxGeometry>
        </mxCell>
        <mxCell id="b1AmFHMhaAKlPpzCnuPG-17" style="edgeStyle=orthogonalEdgeStyle;rounded=0;orthogonalLoop=1;jettySize=auto;html=1;exitX=0.5;exitY=1;exitDx=0;exitDy=0;entryX=0.5;entryY=0;entryDx=0;entryDy=0;" edge="1" parent="b1AmFHMhaAKlPpzCnuPG-34" source="17472293e6e8944d-29" target="1fdf3b25b50cf41e-19">
          <mxGeometry relative="1" as="geometry" />
        </mxCell>
        <mxCell id="b1AmFHMhaAKlPpzCnuPG-18" value="登记意见" style="edgeLabel;html=1;align=center;verticalAlign=middle;resizable=0;points=[];" vertex="1" connectable="0" parent="b1AmFHMhaAKlPpzCnuPG-17">
          <mxGeometry x="0.0147" y="-2" relative="1" as="geometry">
            <mxPoint as="offset" />
          </mxGeometry>
        </mxCell>
        <mxCell id="b1AmFHMhaAKlPpzCnuPG-16" value="" style="endArrow=classic;html=1;rounded=0;" edge="1" parent="b1AmFHMhaAKlPpzCnuPG-34" source="1fdf3b25b50cf41e-18" target="21ea969265ad0168-30">
          <mxGeometry width="50" height="50" relative="1" as="geometry">
            <mxPoint x="530" y="380" as="sourcePoint" />
            <mxPoint x="580" y="330" as="targetPoint" />
          </mxGeometry>
        </mxCell>
        <mxCell id="b1AmFHMhaAKlPpzCnuPG-19" style="edgeStyle=orthogonalEdgeStyle;rounded=0;orthogonalLoop=1;jettySize=auto;html=1;exitX=0.5;exitY=0;exitDx=0;exitDy=0;entryX=-0.024;entryY=-0.107;entryDx=0;entryDy=0;entryPerimeter=0;" edge="1" parent="b1AmFHMhaAKlPpzCnuPG-34" source="1fdf3b25b50cf41e-25" target="1fdf3b25b50cf41e-10">
          <mxGeometry relative="1" as="geometry" />
        </mxCell>
        <mxCell id="b1AmFHMhaAKlPpzCnuPG-20" value="领养申请" style="edgeLabel;html=1;align=center;verticalAlign=middle;resizable=0;points=[];" vertex="1" connectable="0" parent="b1AmFHMhaAKlPpzCnuPG-19">
          <mxGeometry x="0.177" y="1" relative="1" as="geometry">
            <mxPoint x="1" as="offset" />
          </mxGeometry>
        </mxCell>
        <mxCell id="b1AmFHMhaAKlPpzCnuPG-23" value="" style="endArrow=classic;html=1;rounded=0;exitX=0.5;exitY=0;exitDx=0;exitDy=0;entryX=0.497;entryY=1.158;entryDx=0;entryDy=0;entryPerimeter=0;" edge="1" parent="b1AmFHMhaAKlPpzCnuPG-34" source="1fdf3b25b50cf41e-26" target="1fdf3b25b50cf41e-10">
          <mxGeometry width="50" height="50" relative="1" as="geometry">
            <mxPoint x="530" y="380" as="sourcePoint" />
            <mxPoint x="580" y="330" as="targetPoint" />
          </mxGeometry>
        </mxCell>
        <mxCell id="b1AmFHMhaAKlPpzCnuPG-24" value="审核意见" style="edgeLabel;html=1;align=center;verticalAlign=middle;resizable=0;points=[];" vertex="1" connectable="0" parent="b1AmFHMhaAKlPpzCnuPG-23">
          <mxGeometry x="-0.0262" y="-1" relative="1" as="geometry">
            <mxPoint y="-1" as="offset" />
          </mxGeometry>
        </mxCell>
        <mxCell id="b1AmFHMhaAKlPpzCnuPG-27" value="通过的领养申请表" style="html=1;rounded=0;shadow=0;comic=0;labelBackgroundColor=none;strokeWidth=2;fontFamily=Verdana;fontSize=12;align=center;shape=mxgraph.ios7ui.horLines;" vertex="1" parent="b1AmFHMhaAKlPpzCnuPG-34">
          <mxGeometry x="292.5" width="135" height="50" as="geometry" />
        </mxCell>
        <mxCell id="b1AmFHMhaAKlPpzCnuPG-31" style="edgeStyle=orthogonalEdgeStyle;rounded=0;orthogonalLoop=1;jettySize=auto;html=1;exitX=1;exitY=0.5;exitDx=0;exitDy=0;" edge="1" parent="b1AmFHMhaAKlPpzCnuPG-34" source="1fdf3b25b50cf41e-17" target="1fdf3b25b50cf41e-19">
          <mxGeometry relative="1" as="geometry" />
        </mxCell>
        <mxCell id="b1AmFHMhaAKlPpzCnuPG-32" value="已通过登记申请" style="edgeLabel;html=1;align=center;verticalAlign=middle;resizable=0;points=[];" vertex="1" connectable="0" parent="b1AmFHMhaAKlPpzCnuPG-31">
          <mxGeometry x="-0.0472" y="2" relative="1" as="geometry">
            <mxPoint as="offset" />
          </mxGeometry>
        </mxCell>
        <mxCell id="b1AmFHMhaAKlPpzCnuPG-28" style="edgeStyle=orthogonalEdgeStyle;rounded=0;orthogonalLoop=1;jettySize=auto;html=1;exitX=0.5;exitY=1;exitDx=0;exitDy=0;entryX=0.5;entryY=0.056;entryDx=0;entryDy=0;entryPerimeter=0;" edge="1" parent="b1AmFHMhaAKlPpzCnuPG-34" source="1fdf3b25b50cf41e-19" target="1fdf3b25b50cf41e-6">
          <mxGeometry relative="1" as="geometry" />
        </mxCell>
        <mxCell id="b1AmFHMhaAKlPpzCnuPG-30" style="edgeStyle=orthogonalEdgeStyle;rounded=0;orthogonalLoop=1;jettySize=auto;html=1;exitX=0.5;exitY=0;exitDx=0;exitDy=0;entryX=0.497;entryY=1.02;entryDx=0;entryDy=0;entryPerimeter=0;" edge="1" parent="b1AmFHMhaAKlPpzCnuPG-34" source="1fdf3b25b50cf41e-9" target="b1AmFHMhaAKlPpzCnuPG-27">
          <mxGeometry relative="1" as="geometry" />
        </mxCell>
      </root>
    </mxGraphModel>
  </diagram>
</mxfile>
